<svg xmlns="http://www.w3.org/2000/svg" viewBox="0 -960 960 960">
  <circle cx="480" cy="-480" r="680" fill="#ECEFF1" />
  <!-- Material Symbols: public (Apache-2.0) -->
  <path
    fill="#263238"
    d="M480-80q-83 0-156-31.5T197-197q-54-54-85.5-127T80-480q0-83 31.5-156T197-763q54-54 127-85.5T480-880q83 0 156 31.5T763-763q54 54 85.5 127T880-480q0 83-31.5 156T763-197q-54 54-127 85.5T480-80Zm0-80q134 0 227-93t93-227q0-134-93-227t-227-93q-134 0-227 93t-93 227q0 134 93 227t227 93Zm-80-480v40q-33 0-56.5 23.5T320-440h-40q0-50 35-85t85-35Zm160 0q50 0 85 35t35 85h-40q0-33-23.5-56.5T560-560v-40Zm118 320h40q0-50-35-85t-85-35v40q33 0 56.5 23.5T678-240Zm-556 0q0 33 23.5 56.5T202-160v-40q-50 0-85-35t-35-85h40Zm712-320q0 50-35 85t-85 35v-40q33 0 56.5-23.5T834-560h40ZM480-880q-50 0-85 35t-35 85h40q0-33 23.5-56.5T480-920v-40Z"
  />
</svg>
